<?xml version="1.0" standalone="no"?><!DOCTYPE svg PUBLIC "-//W3C//DTD SVG 1.1//EN" "http://www.w3.org/Graphics/SVG/1.1/DTD/svg11.dtd"><svg class="icon" width="32px" height="32.00px" viewBox="0 0 1024 1024" version="1.1" xmlns="http://www.w3.org/2000/svg"><path fill="#ffffff" d="M851.7 504.9c-17 0-30.9 13.9-30.9 30.9v362H126.4V125.6h519.5c17 0 30.9-13.9 30.9-30.9s-13.9-30.9-30.9-30.9H95.6c-17 0-30.9 13.9-30.9 30.9v833.9c0 17 13.9 30.9 30.9 30.9h756.1c17 0 30.9-13.9 30.9-30.9V535.8c0-17-13.9-30.9-30.9-30.9zM951.4 72.9c-12-12-31.6-12-43.7 0L453.3 527.3c-12 12-12 31.6 0 43.7 12 12 31.6 12 43.7 0l454.4-454.4c12-12.1 12-31.7 0-43.7z" /></svg>